<?xml version="1.0" encoding="utf-8"?>
<svg viewBox="0 0 24 24" xmlns="http://www.w3.org/2000/svg" xmlns:xlink="http://www.w3.org/1999/xlink">
    <style>
        :root>svg {
            display: none
        }

        :root>svg:target {
            display: block
        }
    </style>
    <svg viewBox="0 0 24 24" id="avatar">
        <path
            d="M12.1116 9.6C14.1894 9.6 15.8516 7.98 15.8516 6C15.8516 4.02 14.1894 2.4 12.1116 2.4C10.0338 2.4 8.37157 4.02 8.37157 6C8.37157 7.98 10.0338 9.6 12.1116 9.6ZM12.1116 12C8.68935 12 5.92713 9.312 5.92713 6C5.92713 2.688 8.68935 0 12.1116 0C15.5338 0 18.296 2.688 18.296 6C18.296 9.312 15.5338 12 12.1116 12ZM3.55602 21.6H20.6671V20.004C20.6671 17.904 17.8438 15.732 12.1116 15.732C6.37935 15.732 3.55602 17.904 3.55602 20.004V21.6ZM12.1116 13.332C20.2516 13.332 23.1116 17.328 23.1116 20.004V22C23.1116 23.1046 22.2161 24 21.1116 24H3.11157C2.007 24 1.11157 23.1046 1.11157 22V20.004C1.11157 17.328 3.97157 13.332 12.1116 13.332Z" />
    </svg>

    <svg viewBox="0 0 24 24" id="lock">
        <path
            d="M5.44829 11.8261C5.02052 11.8261 4.61027 11.9864 4.30779 12.2718C4.00532 12.5572 3.83539 12.9442 3.83539 13.3478V20.6522C3.83539 21.0558 4.00532 21.4428 4.30779 21.7282C4.61027 22.0136 5.02052 22.1739 5.44829 22.1739H18.3515C18.7793 22.1739 19.1895 22.0136 19.492 21.7282C19.7945 21.4428 19.9644 21.0558 19.9644 20.6522V13.3478C19.9644 12.9442 19.7945 12.5572 19.492 12.2718C19.1895 11.9864 18.7793 11.8261 18.3515 11.8261H5.44829ZM2.9392 10.9806C3.60465 10.3527 4.5072 10 5.44829 10H18.3515C19.2926 10 20.1952 10.3527 20.8606 10.9806C21.5261 11.6084 21.8999 12.4599 21.8999 13.3478V20.6522C21.8999 21.5401 21.5261 22.3916 20.8606 23.0194C20.1952 23.6473 19.2926 24 18.3515 24H5.44829C4.5072 24 3.60465 23.6473 2.9392 23.0194C2.27375 22.3916 1.8999 21.5401 1.8999 20.6522V13.3478C1.8999 12.4599 2.27375 11.6084 2.9392 10.9806Z" />
        <path
            d="M11.8999 1.83871C10.8111 1.83871 9.76693 2.25844 8.99704 3.00556C8.22716 3.75268 7.79464 4.76599 7.79464 5.82258V10.7258C7.79464 11.2336 7.37049 11.6452 6.84727 11.6452C6.32405 11.6452 5.8999 11.2336 5.8999 10.7258V5.82258C5.8999 4.27834 6.53204 2.79734 7.65726 1.70539C8.78248 0.613448 10.3086 0 11.8999 0C13.4912 0 15.0173 0.613448 16.1425 1.70539C17.2678 2.79734 17.8999 4.27834 17.8999 5.82258V10.7258C17.8999 11.2336 17.4758 11.6452 16.9525 11.6452C16.4293 11.6452 16.0052 11.2336 16.0052 10.7258V5.82258C16.0052 4.76599 15.5726 3.75268 14.8028 3.00556C14.0329 2.25844 12.9887 1.83871 11.8999 1.83871ZM10.3368 15.338C10.7514 14.9357 11.3136 14.7097 11.8999 14.7097C12.4862 14.7097 13.0484 14.9357 13.463 15.338C13.8775 15.7403 14.1104 16.2859 14.1104 16.8548C14.1104 17.4238 13.8775 17.9694 13.463 18.3717C13.0484 18.774 12.4862 19 11.8999 19C11.3136 19 10.7514 18.774 10.3368 18.3717C9.92227 17.9694 9.68938 17.4238 9.68938 16.8548C9.68938 16.2859 9.92227 15.7403 10.3368 15.338ZM11.8999 16.5484C11.8162 16.5484 11.7358 16.5807 11.6766 16.6381C11.6174 16.6956 11.5841 16.7736 11.5841 16.8548C11.5841 16.9361 11.6174 17.0141 11.6766 17.0715C11.7358 17.129 11.8161 17.1613 11.8999 17.1613C11.9837 17.1613 12.064 17.129 12.1232 17.0715C12.1824 17.0141 12.2157 16.9361 12.2157 16.8548C12.2157 16.7736 12.1824 16.6956 12.1232 16.6381C12.064 16.5807 11.9837 16.5484 11.8999 16.5484Z" />
    </svg>

    <svg viewBox="0 0 24 24" id="no-view">
        <path fill="#624cab"
            d="M14.8,6.4L13,8.1C10.9,7.6,8.7,8.8,8.1,11C8,11.6,8,12.4,8.1,13l-2.8,2.8c-1.3-1-2.4-2.3-3.2-3.8C4.6,7.4,9.8,5,14.8,6.4	L14.8,6.4z M18.6,8.2c1.3,1,2.4,2.3,3.2,3.8c-2.4,4.6-7.6,7-12.6,5.6l1.8-1.8c2.1,0.6,4.3-0.7,4.9-2.8c0.2-0.7,0.2-1.4,0-2.1	L18.6,8.2L18.6,8.2z M18.4,4.2l1.4,1.4L5.6,19.8l-1.4-1.4L18.4,4.2z" />
    </svg>

    <svg viewBox="0 0 24 24" id="view">
        <path fill="#624cab"
            d="M2.2,12C5,6.6,11.6,4.4,17,7.2c2.1,1.1,3.7,2.7,4.8,4.8C19,17.4,12.4,19.6,7,16.8C4.9,15.7,3.3,14.1,2.2,12z M12,16	c2.2,0,4-1.8,4-4s-1.8-4-4-4s-4,1.8-4,4S9.8,16,12,16z M12,14c-1.1,0-2-0.9-2-2s0.9-2,2-2s2,0.9,2,2S13.1,14,12,14z" />
    </svg>

    <svg viewBox="0 0 24 24" id="logout">
        <path fill-rule="evenodd" clip-rule="evenodd"
            d="M2.54647 1.95918C2.26519 1.95918 2.03717 2.17847 2.03717 2.44898V21.551C2.03717 21.8215 2.26519 22.0408 2.54647 22.0408H14.7695C15.0508 22.0408 15.2788 21.8215 15.2788 21.551V18.6122C15.2788 18.0712 15.7348 17.6327 16.2974 17.6327C16.8599 17.6327 17.316 18.0712 17.316 18.6122V21.551C17.316 22.9036 16.1759 24 14.7695 24H2.54647C1.14009 24 0 22.9036 0 21.551V2.44898C0 1.09645 1.14009 0 2.54647 0H14.7695C16.1759 0 17.316 1.09645 17.316 2.44898V5.38776C17.316 5.92877 16.8599 6.36735 16.2974 6.36735C15.7348 6.36735 15.2788 5.92877 15.2788 5.38776V2.44898C15.2788 2.17847 15.0508 1.95918 14.7695 1.95918H2.54647ZM17.0428 7.69941C17.4029 7.28379 18.0452 7.22764 18.4774 7.57399L24 12L18.4774 16.426C18.0452 16.7724 17.4029 16.7162 17.0428 16.3006C16.6826 15.885 16.741 15.2673 17.1732 14.9209L19.5955 12.9796H10.1859C9.62332 12.9796 9.16728 12.541 9.16728 12C9.16728 11.459 9.62332 11.0204 10.1859 11.0204H19.5955L17.1732 9.07907C16.741 8.73273 16.6826 8.11503 17.0428 7.69941Z" />
    </svg>

    <svg viewBox="0 0 24 24" id="setting">
        <path
            d="M22.0391 12.7919C21.8433 12.5729 21.7353 12.2915 21.7353 12C21.7353 11.7086 21.8433 11.4271 22.0391 11.2081L23.6025 9.48034C23.7748 9.29157 23.8818 9.05404 23.9081 8.80184C23.9345 8.54964 23.8788 8.29573 23.7491 8.07653L21.3062 3.9251C21.1778 3.70615 20.9824 3.5326 20.7477 3.42919C20.513 3.32577 20.2511 3.29777 19.9993 3.34918L17.703 3.80511C17.4108 3.86442 17.1066 3.81662 16.8478 3.67073C16.589 3.52485 16.3936 3.29096 16.2983 3.01322L15.5532 0.817521C15.4713 0.579208 15.3152 0.372219 15.1069 0.225812C14.8987 0.0794039 14.6489 0.000982422 14.3928 0.00163173H9.50706C9.2407 -0.0120249 8.97711 0.0603354 8.75656 0.207661C8.536 0.354986 8.3706 0.569177 8.28561 0.817521L7.6016 3.01322C7.50633 3.29096 7.31086 3.52485 7.05209 3.67073C6.79332 3.81662 6.48913 3.86442 6.19694 3.80511L3.83955 3.34918C3.60082 3.31604 3.35745 3.35304 3.14009 3.45553C2.92273 3.55802 2.74111 3.7214 2.61811 3.9251L0.175217 8.07653C0.0422754 8.29328 -0.0174996 8.54577 0.00443817 8.7979C0.0263759 9.05003 0.128903 9.2889 0.297362 9.48034L1.8486 11.2081C2.04442 11.4271 2.15241 11.7086 2.15241 12C2.15241 12.2915 2.04442 12.5729 1.8486 12.7919L0.297362 14.5197C0.128903 14.7111 0.0263759 14.95 0.00443817 15.2021C-0.0174996 15.4542 0.0422754 15.7067 0.175217 15.9235L2.61811 20.0749C2.74648 20.2938 2.94194 20.4674 3.17662 20.5708C3.4113 20.6742 3.67322 20.7022 3.92505 20.6508L6.22137 20.1949C6.51356 20.1356 6.81774 20.1834 7.07652 20.3293C7.33529 20.4752 7.53076 20.709 7.62603 20.9868L8.37111 23.1825C8.4561 23.4308 8.6215 23.645 8.84206 23.7923C9.06262 23.9397 9.3262 24.012 9.59256 23.9984H14.4783C14.7344 23.999 14.9842 23.9206 15.1924 23.7742C15.4007 23.6278 15.5568 23.4208 15.6387 23.1825L16.3838 20.9868C16.4791 20.709 16.6745 20.4752 16.9333 20.3293C17.1921 20.1834 17.4963 20.1356 17.7885 20.1949L20.0848 20.6508C20.3366 20.7022 20.5985 20.6742 20.8332 20.5708C21.0679 20.4674 21.2633 20.2938 21.3917 20.0749L23.8346 15.9235C23.9643 15.7043 24.02 15.4504 23.9936 15.1982C23.9673 14.946 23.8603 14.7084 23.688 14.5197L22.0391 12.7919ZM20.2191 14.3997L21.1963 15.4795L19.6328 18.1432L18.1915 17.8552C17.3118 17.6786 16.3967 17.8253 15.6199 18.2677C14.8431 18.7101 14.2587 19.4172 13.9775 20.2549L13.5134 21.5987H10.3865L9.94678 20.2309C9.66567 19.3932 9.08124 18.6861 8.30443 18.2437C7.52762 17.8014 6.6125 17.6546 5.73279 17.8312L4.29149 18.1192L2.70361 15.4675L3.68076 14.3877C4.28166 13.7277 4.61386 12.8734 4.61386 11.988C4.61386 11.1026 4.28166 10.2483 3.68076 9.58833L2.70361 8.50848L4.26706 5.86883L5.70836 6.1568C6.58807 6.33344 7.50319 6.18665 8.28 5.74429C9.05681 5.30193 9.64124 4.5948 9.92235 3.75712L10.3865 2.40131H13.5134L13.9775 3.76912C14.2587 4.6068 14.8431 5.31393 15.6199 5.75629C16.3967 6.19865 17.3118 6.34544 18.1915 6.16879L19.6328 5.88083L21.1963 8.54447L20.2191 9.62432C19.625 10.2827 19.2969 11.1321 19.2969 12.012C19.2969 12.8919 19.625 13.7413 20.2191 14.3997ZM11.9499 7.20065C10.9836 7.20065 10.039 7.48213 9.23555 8.00949C8.43209 8.53685 7.80587 9.2864 7.43607 10.1634C7.06628 11.0403 6.96953 12.0053 7.15804 12.9363C7.34656 13.8673 7.81189 14.7225 8.49518 15.3937C9.17847 16.0649 10.049 16.5219 10.9968 16.7071C11.9445 16.8923 12.9269 16.7973 13.8197 16.434C14.7124 16.0708 15.4755 15.4556 16.0123 14.6664C16.5492 13.8771 16.8357 12.9492 16.8357 12C16.8357 10.7271 16.321 9.5064 15.4047 8.60635C14.4885 7.7063 13.2457 7.20065 11.9499 7.20065ZM11.9499 14.3997C11.4668 14.3997 10.9945 14.2589 10.5927 13.9953C10.191 13.7316 9.87791 13.3568 9.69301 12.9183C9.50811 12.4798 9.45974 11.9973 9.554 11.5318C9.64825 11.0664 9.88092 10.6388 10.2226 10.3032C10.5642 9.96758 10.9995 9.73903 11.4734 9.64644C11.9472 9.55384 12.4384 9.60137 12.8848 9.78299C13.3312 9.96462 13.7127 10.2722 13.9811 10.6668C14.2496 11.0614 14.3928 11.5254 14.3928 12C14.3928 12.6364 14.1355 13.2468 13.6773 13.6968C13.2192 14.1469 12.5978 14.3997 11.9499 14.3997Z" />
    </svg>

    <svg viewBox="0 0 24 24" id="suitcase">
        <path
            d="M7.5 4.22222C7.5 2.99492 8.48497 2 9.7 2H16.3C17.515 2 18.5 2.99492 18.5 4.22222V5.33333H21.8C23.015 5.33333 24 6.32826 24 7.55556V19.7778C24 21.0051 23.015 22 21.8 22H4.2C2.98497 22 2 21.0051 2 19.7778V7.55556C2 6.32826 2.98497 5.33333 4.2 5.33333H7.5V4.22222ZM9.7 5.33333H16.3L16.3 4.22222L9.7 4.22222V5.33333ZM4.2 7.55556V10.5859C4.25162 10.599 4.30538 10.6126 4.3612 10.6266C4.9727 10.7802 5.82849 10.9852 6.80398 11.1899C8.77608 11.6039 11.159 12 13 12C14.841 12 17.2239 11.6039 19.196 11.1899C20.1715 10.9852 21.0273 10.7802 21.6388 10.6266C21.6946 10.6126 21.7484 10.599 21.8 10.5859L21.8 7.55556H4.2ZM21.8 12.8749C21.2112 13.0191 20.4693 13.1923 19.6436 13.3656C17.6456 13.785 15.0785 14.2222 13 14.2222C10.9215 14.2222 8.3544 13.785 6.35638 13.3656C5.53069 13.1923 4.78879 13.0191 4.2 12.8749V19.7778L21.8 19.7778V12.8749Z" />
    </svg>

    <svg viewBox="0 0 24 24" id="tools">
        <path
            d="M7.00893 24H2.57051C1.14816 24 0 22.8529 0 21.4318V16.9973C0 16.3125 0.274188 15.6619 0.754017 15.1825L4.54124 11.3986C4.88397 11.0562 5.41521 11.0562 5.75794 11.3986C6.10068 11.741 6.10068 12.2718 5.75794 12.6142L1.97072 16.3981C1.81082 16.5572 1.71871 16.7719 1.71367 16.9973V21.4318C1.71367 21.9112 2.09068 22.2879 2.57051 22.2879H7.00893C7.2317 22.2879 7.45448 22.2022 7.60871 22.031L11.3959 18.2472C11.7387 17.9048 12.2699 17.9048 12.6126 18.2472C12.9554 18.5896 12.9554 19.1204 12.6126 19.4628L8.82542 23.2467C8.34559 23.7261 7.6944 24 7.00893 24ZM19.0561 12.6656C18.9437 12.667 18.8323 12.6448 18.729 12.6006C18.6257 12.5564 18.5328 12.491 18.4563 12.4088C18.1135 12.0663 18.1135 11.5356 18.4563 11.1932L22.055 7.59765C22.3806 7.27234 22.3806 6.72445 22.055 6.38202L17.6166 1.94757C17.4529 1.79081 17.2349 1.70329 17.0082 1.70329C16.7815 1.70329 16.5635 1.79081 16.3999 1.94757L12.6983 5.6458C12.3556 5.98823 11.8243 5.98823 11.4816 5.6458C11.1389 5.30337 11.1389 4.77261 11.4816 4.43018L15.1831 0.731942C16.1599 -0.243981 17.8393 -0.243981 18.8161 0.731942L23.2546 5.1664C24.2485 6.15944 24.2485 7.8031 23.2546 8.79615L19.6558 12.3917C19.4845 12.5629 19.2617 12.6485 19.0561 12.6485V12.6656Z" />
        <path
            d="M16.8973 24C16.2035 24 15.5444 23.7227 15.0587 23.2373L11.2602 19.4413C10.9133 19.0947 10.9133 18.5573 11.2602 18.2107C11.6071 17.864 12.1448 17.864 12.4917 18.2107L16.2902 22.0067C16.6197 22.336 17.1921 22.336 17.5217 22.0067L22.014 17.5173C22.3436 17.188 22.3436 16.6333 22.014 16.2867L18.2155 12.4907C17.8686 12.144 17.8686 11.6067 18.2155 11.26C18.5624 10.9133 19.1001 10.9133 19.447 11.26L23.2455 15.056C24.2515 16.0613 24.2515 17.7253 23.2455 18.7307L18.7532 23.22C18.2675 23.7053 17.6084 23.9827 16.9146 23.9827L16.8973 24Z" />
        <path
            d="M12.3785 19.9662C12.2677 19.9676 12.1578 19.9457 12.056 19.9021C11.9541 19.8584 11.8625 19.7939 11.7871 19.7128L0.735108 8.68004C-0.245036 7.70011 -0.245036 6.07814 0.735108 5.0982L5.11196 0.722281C6.0752 -0.24076 7.73131 -0.24076 8.69455 0.722281L19.7465 11.7719C20.0845 12.1098 20.0845 12.6336 19.7465 12.9715C19.4085 13.3094 18.8847 13.3094 18.5467 12.9715L7.49472 1.92186C7.33332 1.76717 7.11838 1.68081 6.8948 1.68081C6.67122 1.68081 6.45629 1.76717 6.29489 1.92186L1.91804 6.29778C1.59696 6.6188 1.59696 7.15945 1.91804 7.49736L12.97 18.547C13.308 18.8849 13.308 19.4087 12.97 19.7466C12.801 19.9155 12.5813 20 12.3785 20V19.9662Z" />
        <path
            d="M7.85592 9.0499C7.74366 9.05127 7.63237 9.02913 7.52918 8.98491C7.42599 8.94069 7.3332 8.87536 7.25678 8.79313C6.91441 8.45076 6.91441 7.9201 7.25678 7.57773L10.5777 4.25677C10.9201 3.91441 11.4508 3.91441 11.7932 4.25677C12.1355 4.59914 12.1355 5.12981 11.7932 5.47218L8.47218 8.79313C8.301 8.96431 8.07846 9.0499 7.87304 9.0499H7.85592ZM11.331 12.5249C11.2187 12.5263 11.1074 12.5042 11.0042 12.4599C10.901 12.4157 10.8082 12.3504 10.7318 12.2681C10.3894 11.9258 10.3894 11.3951 10.7318 11.0527L14.0528 7.73179C14.3952 7.38943 14.9258 7.38943 15.2682 7.73179C15.6106 8.07416 15.6106 8.60483 15.2682 8.94719L11.9472 12.2681C11.776 12.4393 11.5535 12.5249 11.3481 12.5249H11.331ZM14.806 15.9999C14.6937 16.0013 14.5824 15.9792 14.4792 15.9349C14.3761 15.8907 14.2833 15.8254 14.2068 15.7432C13.8645 15.4008 13.8645 14.8701 14.2068 14.5278L17.5278 11.2068C17.8702 10.8644 18.4009 10.8644 18.7432 11.2068C19.0856 11.5492 19.0856 12.0798 18.7432 12.4222L15.4223 15.7432C15.2511 15.9143 15.0285 15.9999 14.8231 15.9999H14.806Z" />
    </svg>

    <svg viewBox="0 0 24 24" id="user-group">
        <path fill-rule="evenodd" clip-rule="evenodd"
            d="M12 1.63265C11.3317 1.63265 10.687 1.90492 10.2087 2.39572C9.72982 2.88715 9.45763 3.55749 9.45763 4.2602C9.45763 4.96292 9.72982 5.63326 10.2087 6.12469C10.687 6.61549 11.3317 6.88776 12 6.88776C12.6683 6.88776 13.313 6.61549 13.7913 6.12469C14.2702 5.63326 14.5424 4.96292 14.5424 4.2602C14.5424 3.55749 14.2702 2.88715 13.7913 2.39572C13.313 1.90492 12.6683 1.63265 12 1.63265ZM9.0453 1.25431C9.82575 0.453404 10.8882 0 12 0C13.1118 0 14.1743 0.453404 14.9547 1.25431C15.7345 2.05459 16.1695 3.13617 16.1695 4.2602C16.1695 5.38424 15.7345 6.46582 14.9547 7.2661C14.1743 8.06701 13.1118 8.52041 12 8.52041C10.8882 8.52041 9.82575 8.06701 9.0453 7.2661C8.26545 6.46582 7.83051 5.38424 7.83051 4.2602C7.83051 3.13617 8.26545 2.05459 9.0453 1.25431ZM4.16949 6.22449C3.79787 6.22449 3.43767 6.37581 3.16919 6.65133C2.9001 6.92747 2.74576 7.30582 2.74576 7.70408C2.74576 8.10234 2.9001 8.48069 3.16919 8.75683C3.43767 9.03235 3.79787 9.18367 4.16949 9.18367C4.54111 9.18367 4.90131 9.03235 5.16979 8.75683C5.43888 8.48069 5.59322 8.10234 5.59322 7.70408C5.59322 7.30582 5.43888 6.92747 5.16979 6.65133C4.90131 6.37581 4.54111 6.22449 4.16949 6.22449ZM2.00579 5.50992C2.57645 4.9243 3.35438 4.59184 4.16949 4.59184C4.9846 4.59184 5.76253 4.9243 6.33319 5.50992C6.90325 6.09491 7.22034 6.88451 7.22034 7.70408C7.22034 8.52366 6.90325 9.31325 6.33319 9.89825C5.76253 10.4839 4.9846 10.8163 4.16949 10.8163C3.35438 10.8163 2.57645 10.4839 2.00579 9.89825C1.43573 9.31325 1.11864 8.52366 1.11864 7.70408C1.11864 6.88451 1.43573 6.09491 2.00579 5.50992ZM19.8305 6.22449C19.4589 6.22449 19.0987 6.37581 18.8302 6.65133C18.5611 6.92747 18.4068 7.30583 18.4068 7.70408C18.4068 8.10234 18.5611 8.48069 18.8302 8.75683C19.0987 9.03235 19.4589 9.18367 19.8305 9.18367C20.2021 9.18367 20.5623 9.03235 20.8308 8.75683C21.0999 8.48069 21.2542 8.10234 21.2542 7.70408C21.2542 7.30583 21.0999 6.92747 20.8308 6.65133C20.5623 6.37581 20.2021 6.22449 19.8305 6.22449ZM17.6668 5.50992C18.2375 4.9243 19.0154 4.59184 19.8305 4.59184C20.6456 4.59184 21.4235 4.9243 21.9942 5.50992C22.5643 6.09491 22.8814 6.88451 22.8814 7.70408C22.8814 8.52366 22.5643 9.31325 21.9942 9.89825C21.4235 10.4839 20.6456 10.8163 19.8305 10.8163C19.0154 10.8163 18.2375 10.4839 17.6668 9.89825C17.0967 9.31325 16.7797 8.52366 16.7797 7.70408C16.7797 6.88451 17.0967 6.09491 17.6668 5.50992ZM12 11.9635C11.0486 11.9635 10.1174 12.2559 9.32642 12.8054C8.53522 13.355 7.91988 14.1373 7.56265 15.0534C7.34209 15.6183 7.22034 16.2375 7.22034 16.8878V18.3673H16.7797V16.8878C16.7797 16.2375 16.658 15.6187 16.4375 15.0538C16.0803 14.1376 15.4648 13.355 14.6736 12.8054C13.8826 12.2559 12.9514 11.9635 12 11.9635ZM18.4068 18.3673H22.3729V16.8878C22.3729 16.8878 22.3729 16.8878 22.3729 16.8878C22.3728 16.3375 22.2056 15.8025 21.8969 15.3573C21.5883 14.9124 21.1545 14.5802 20.658 14.4035C20.1617 14.227 19.6249 14.2135 19.1211 14.3648C18.7487 14.4767 18.4066 14.675 18.1205 14.9437C18.307 15.5592 18.4068 16.2125 18.4068 16.8878V18.3673ZM17.4297 13.4049C16.9605 12.6392 16.339 11.9765 15.5998 11.463C14.5388 10.726 13.2849 10.3308 12 10.3308C10.7151 10.3308 9.46121 10.726 8.40023 11.463C7.66103 11.9765 7.03946 12.6392 6.57028 13.4049C6.19983 13.1383 5.78665 12.9333 5.34553 12.8008C4.51059 12.55 3.61988 12.5724 2.79825 12.8648C1.97685 13.157 1.26784 13.7035 0.767601 14.4247C0.267524 15.1458 6.2797e-05 16.0066 0 16.8877V19.1837C0 19.6345 0.364243 20 0.813559 20H23.1864C23.6358 20 24 19.6345 24 19.1837V16.8878C23.9999 16.0067 23.7325 15.1458 23.2324 14.4247C22.7322 13.7035 22.0232 13.157 21.2017 12.8648C20.3801 12.5724 19.4894 12.55 18.6545 12.8008C18.2134 12.9333 17.8002 13.1383 17.4297 13.4049ZM5.87949 14.9437C5.59343 14.675 5.25126 14.4767 4.8789 14.3648C4.37514 14.2135 3.83831 14.227 3.34204 14.4035C2.84554 14.5802 2.41173 14.9124 2.10314 15.3573C1.79439 15.8025 1.62717 16.3374 1.62712 16.8878C1.62712 16.8877 1.62712 16.8878 1.62712 16.8878V18.3673H5.59322V16.8878C5.59322 16.2125 5.69299 15.5592 5.87949 14.9437Z" />
    </svg>

    <svg viewBox="0 0 24 24" id="arrow">
        <path
            d="M2.8,14L10,6.8c0.3-0.3,0.6-0.5,0.9-0.6C11.3,6.1,11.6,6,12,6c0.4,0,0.7,0.1,1.1,0.2c0.3,0.1,0.6,0.3,0.9,0.6l7.2,7.2 c1.8,1.8,0.5,4.8-2,4.8H4.8C2.3,18.8,1.1,15.8,2.8,14z" />
    </svg>

    <svg viewBox="0 0 24 24" id="edit-avatar">
        <path
            d="M13.4048 15.426L15.1195 13.7114H3.57196C3.23416 13.7113 2.89965 13.7777 2.58754 13.9069C2.27542 14.0361 1.99183 14.2255 1.75297 14.4644C1.51412 14.7032 1.32467 14.9868 1.19547 15.2989C1.06627 15.6111 0.99985 15.9456 1 16.2834V16.9429C1 17.9626 1.36579 18.9502 2.02878 19.7264C3.6234 21.5942 5.96331 22.6195 8.99822 22.8207C8.99365 22.6115 9.01651 22.3978 9.07138 22.1794L9.33429 21.1232C6.62173 20.9861 4.63847 20.1424 3.33191 18.613C2.93388 18.1475 2.715 17.5554 2.71464 16.9429V16.2822C2.71494 16.055 2.8054 15.8373 2.96615 15.6767C3.12689 15.5162 3.34478 15.426 3.57196 15.426H13.4048ZM10.1413 0C10.8919 -1.11843e-08 11.6351 0.147835 12.3285 0.435064C13.022 0.722293 13.652 1.14329 14.1828 1.67402C14.7135 2.20475 15.1345 2.83482 15.4217 3.52825C15.709 4.22168 15.8568 4.9649 15.8568 5.71547C15.8568 6.46603 15.709 7.20925 15.4217 7.90268C15.1345 8.59611 14.7135 9.22618 14.1828 9.75691C13.652 10.2876 13.022 10.7086 12.3285 10.9959C11.6351 11.2831 10.8919 11.4309 10.1413 11.4309C8.62548 11.4309 7.17173 10.8288 6.09987 9.75691C5.02801 8.68505 4.42585 7.2313 4.42585 5.71547C4.42585 4.19963 5.02801 2.74588 6.09987 1.67402C7.17173 0.602163 8.62548 0 10.1413 0ZM10.1413 1.71464C9.61592 1.71464 9.09567 1.81812 8.61027 2.01918C8.12487 2.22025 7.68382 2.51494 7.31231 2.88645C6.94079 3.25797 6.6461 3.69901 6.44504 4.18442C6.24398 4.66982 6.14049 5.19007 6.14049 5.71547C6.14049 6.24086 6.24398 6.76111 6.44504 7.24652C6.6461 7.73192 6.94079 8.17297 7.31231 8.54448C7.68382 8.91599 8.12487 9.21069 8.61027 9.41175C9.09567 9.61281 9.61592 9.71629 10.1413 9.71629C11.2024 9.71629 12.22 9.29478 12.9703 8.54448C13.7206 7.79418 14.1421 6.77655 14.1421 5.71547C14.1421 4.65438 13.7206 3.63676 12.9703 2.88645C12.22 2.13615 11.2024 1.71464 10.1413 1.71464ZM18.2573 12.1911L11.5096 18.9376C11.1165 19.3309 10.8375 19.8236 10.7026 20.3631L10.179 22.4561C10.127 22.6643 10.1297 22.8825 10.1871 23.0893C10.2444 23.2962 10.3544 23.4847 10.5062 23.6364C10.658 23.7881 10.8466 23.8979 11.0535 23.9551C11.2604 24.0123 11.4786 24.0149 11.6868 23.9627L13.7786 23.4403C14.3187 23.3052 14.8118 23.0259 15.2052 22.6321L21.9518 15.8856C22.4228 15.3918 22.6821 14.7334 22.674 14.051C22.666 13.3687 22.3914 12.7165 21.9089 12.234C21.4263 11.7515 20.7742 11.4768 20.0918 11.4688C19.4094 11.4608 18.751 11.72 18.2573 12.1911Z" />
    </svg>

    <svg viewBox="0 0 24 24" id="tel">
        <path fill-rule="evenodd" clip-rule="evenodd"
            d="M6.74247 1.011C6.51466 0.718313 6.22724 0.477385 5.89927 0.304181C5.5713 0.130977 5.21026 0.0294517 4.84008 0.00633341C4.46991 -0.0167849 4.09904 0.0390316 3.75207 0.170084C3.4051 0.301136 3.08994 0.504432 2.82747 0.766499L1.27647 2.3175C0.166474 3.4275 -0.321026 5.088 0.221974 6.633C1.61489 10.5907 3.88091 14.184 6.85197 17.1465C9.81488 20.1178 13.4087 22.3838 17.367 23.7765C18.9135 24.321 20.5725 23.8335 21.6825 22.7235L23.2335 21.1725C24.3465 20.061 24.2325 18.2235 22.989 17.256L19.53 14.565C19.2167 14.3215 18.8521 14.1525 18.4639 14.0706C18.0757 13.9888 17.6739 13.9963 17.289 14.0925L14.0055 14.913C13.8351 14.9557 13.6566 14.9535 13.4873 14.9068C13.318 14.86 13.1637 14.7701 13.0395 14.646L9.35397 10.9605C9.23009 10.8364 9.14041 10.6824 9.09363 10.5134C9.04684 10.3444 9.04455 10.1661 9.08697 9.996L9.90747 6.711C10.1025 5.931 9.92847 5.1045 9.43497 4.47L6.74247 1.011ZM7.54053 5.94346C7.54045 5.94336 7.54061 5.94356 7.54053 5.94346L4.8486 2.4852C4.82967 2.46087 4.80575 2.44081 4.7785 2.42642C4.75125 2.41202 4.72125 2.40359 4.69049 2.40167C4.65973 2.39975 4.62891 2.40438 4.60008 2.41527C4.57139 2.42611 4.54532 2.44289 4.52358 2.46451C4.52347 2.46461 4.52369 2.4644 4.52358 2.46451L2.97353 4.01456C2.43761 4.55048 2.28464 5.26314 2.48606 5.8368M7.54053 5.94346C7.5804 5.99491 7.59551 6.06341 7.57913 6.12891L6.75851 9.41441C6.61597 9.98608 6.62343 10.5859 6.78062 11.1537C6.9378 11.7215 7.23914 12.239 7.65535 12.656L11.3433 16.3439C11.7608 16.761 12.2791 17.0628 12.8479 17.22C13.4167 17.3772 14.0165 17.3845 14.5889 17.241L17.8708 16.4209C17.9028 16.4129 17.9365 16.4122 17.9688 16.419C18.001 16.4258 18.0313 16.4399 18.0573 16.4601L21.5152 19.1502C21.6207 19.2323 21.6272 19.3848 21.5376 19.4743L19.9854 21.0264C19.4494 21.5625 18.7386 21.715 18.164 21.5127C14.5457 20.2396 11.2599 18.168 8.55142 15.4518L8.54657 15.447C5.83086 12.7391 3.7594 9.45427 2.48606 5.8368" />
    </svg>

    <svg viewBox="0 0 24 24" id="email">
        <path fill-rule="evenodd" clip-rule="evenodd"
            d="M3.2 5.125V5.95375C3.2 6.30113 3.47575 6.58031 3.74107 6.80454V6.80454L11.8167 13.6298L19.8924 6.80454V6.80454C20.281 6.47606 20.8 6.0946 20.8 5.58572L20.8 5.125H3.2ZM20.8 8.86106L13.2654 15.2291C12.436 15.9301 11.1975 15.9301 10.368 15.2291L3.2 9.17088V17.875H20.8V8.86106ZM1 5.125C1 3.95139 1.98498 3 3.2 3H20.8C22.015 3 23 3.95139 23 5.125V17.875C23 19.0486 22.015 20 20.8 20H3.2C1.98497 20 1 19.0486 1 17.875V5.125Z" />
    </svg>

    <svg viewBox="0 0 24 24" id="password">
        <path
            d="M2.18182 20C1.87273 20 1.61345 19.8936 1.404 19.6807C1.19455 19.4678 1.09018 19.2047 1.09091 18.8913C1.09091 18.5771 1.19564 18.3136 1.40509 18.1007C1.61455 17.8878 1.87345 17.7818 2.18182 17.7825H21.8182C22.1273 17.7825 22.3865 17.889 22.596 18.1018C22.8055 18.3147 22.9098 18.5778 22.9091 18.8913C22.9091 19.2054 22.8044 19.4689 22.5949 19.6818C22.3855 19.8947 22.1265 20.0007 21.8182 20H2.18182ZM1.63636 12.8763C1.43636 12.7655 1.30909 12.5991 1.25455 12.3774C1.2 12.1556 1.22727 11.9431 1.33636 11.7399L1.85455 10.7974H0.818182C0.581818 10.7974 0.386546 10.7191 0.232364 10.5624C0.0781819 10.4057 0.000727273 10.2069 0 9.96588C0 9.72566 0.0774546 9.52719 0.232364 9.37049C0.387273 9.21379 0.582545 9.13507 0.818182 9.13433H1.85455L1.33636 8.24733C1.22727 8.04406 1.2 7.83156 1.25455 7.60981C1.30909 7.38806 1.43636 7.22175 1.63636 7.11087C1.83636 7 2.04545 6.97228 2.26364 7.02772C2.48182 7.08316 2.64545 7.21251 2.75455 7.41578L3.27273 8.30277L3.79091 7.41578C3.9 7.21251 4.06364 7.08316 4.28182 7.02772C4.5 6.97228 4.70909 7 4.90909 7.11087C5.10909 7.22175 5.23636 7.38806 5.29091 7.60981C5.34545 7.83156 5.31818 8.04406 5.20909 8.24733L4.69091 9.13433H5.72727C5.96364 9.13433 6.15891 9.21305 6.31309 9.37049C6.46727 9.52793 6.54473 9.7264 6.54545 9.96588C6.54545 10.2061 6.468 10.4049 6.31309 10.5624C6.15818 10.7198 5.96291 10.7982 5.72727 10.7974H4.69091L5.20909 11.7399C5.31818 11.9431 5.34545 12.1556 5.29091 12.3774C5.23636 12.5991 5.10909 12.7655 4.90909 12.8763C4.70909 12.9872 4.5 13.0149 4.28182 12.9595C4.06364 12.904 3.9 12.7747 3.79091 12.5714L3.27273 11.629L2.75455 12.5714C2.64545 12.7747 2.48182 12.904 2.26364 12.9595C2.04545 13.0149 1.83636 12.9872 1.63636 12.8763ZM10.3636 12.8763C10.1636 12.7655 10.0364 12.5991 9.98182 12.3774C9.92727 12.1556 9.95455 11.9431 10.0636 11.7399L10.5818 10.7974H9.54545C9.30909 10.7974 9.11382 10.7191 8.95964 10.5624C8.80546 10.4057 8.728 10.2069 8.72727 9.96588C8.72727 9.72566 8.80473 9.52719 8.95964 9.37049C9.11455 9.21379 9.30982 9.13507 9.54545 9.13433H10.5818L10.0636 8.24733C9.95455 8.04406 9.92727 7.83156 9.98182 7.60981C10.0364 7.38806 10.1636 7.22175 10.3636 7.11087C10.5636 7 10.7727 6.97228 10.9909 7.02772C11.2091 7.08316 11.3727 7.21251 11.4818 7.41578L12 8.30277L12.5182 7.41578C12.6273 7.21251 12.7909 7.08316 13.0091 7.02772C13.2273 6.97228 13.4364 7 13.6364 7.11087C13.8364 7.22175 13.9636 7.38806 14.0182 7.60981C14.0727 7.83156 14.0455 8.04406 13.9364 8.24733L13.4182 9.13433H14.4545C14.6909 9.13433 14.8862 9.21305 15.0404 9.37049C15.1945 9.52793 15.272 9.7264 15.2727 9.96588C15.2727 10.2061 15.1953 10.4049 15.0404 10.5624C14.8855 10.7198 14.6902 10.7982 14.4545 10.7974H13.4182L13.9364 11.7399C14.0455 11.9431 14.0727 12.1556 14.0182 12.3774C13.9636 12.5991 13.8364 12.7655 13.6364 12.8763C13.4364 12.9872 13.2273 13.0149 13.0091 12.9595C12.7909 12.904 12.6273 12.7747 12.5182 12.5714L12 11.629L11.4818 12.5714C11.3727 12.7747 11.2091 12.904 10.9909 12.9595C10.7727 13.0149 10.5636 12.9872 10.3636 12.8763ZM19.0909 12.8763C18.8909 12.7655 18.7636 12.5991 18.7091 12.3774C18.6545 12.1556 18.6818 11.9431 18.7909 11.7399L19.3091 10.7974H18.2727C18.0364 10.7974 17.8411 10.7191 17.6869 10.5624C17.5327 10.4057 17.4553 10.2069 17.4545 9.96588C17.4545 9.72566 17.532 9.52719 17.6869 9.37049C17.8418 9.21379 18.0371 9.13507 18.2727 9.13433H19.3091L18.7909 8.24733C18.6818 8.04406 18.6545 7.83156 18.7091 7.60981C18.7636 7.38806 18.8909 7.22175 19.0909 7.11087C19.2909 7 19.5 6.97228 19.7182 7.02772C19.9364 7.08316 20.1 7.21251 20.2091 7.41578L20.7273 8.30277L21.2455 7.41578C21.3545 7.21251 21.5182 7.08316 21.7364 7.02772C21.9545 6.97228 22.1636 7 22.3636 7.11087C22.5636 7.22175 22.6909 7.38806 22.7455 7.60981C22.8 7.83156 22.7727 8.04406 22.6636 8.24733L22.1455 9.13433H23.1818C23.4182 9.13433 23.6135 9.21305 23.7676 9.37049C23.9218 9.52793 23.9993 9.7264 24 9.96588C24 10.2061 23.9225 10.4049 23.7676 10.5624C23.6127 10.7198 23.4175 10.7982 23.1818 10.7974H22.1455L22.6636 11.7399C22.7727 11.9431 22.8 12.1556 22.7455 12.3774C22.6909 12.5991 22.5636 12.7655 22.3636 12.8763C22.1636 12.9872 21.9545 13.0149 21.7364 12.9595C21.5182 12.904 21.3545 12.7747 21.2455 12.5714L20.7273 11.629L20.2091 12.5714C20.1 12.7747 19.9364 12.904 19.7182 12.9595C19.5 13.0149 19.2909 12.9872 19.0909 12.8763Z" />
    </svg>

    <svg viewBox="0 0 24 24" id="file">
        <path
            d="M3 3C3 2.46957 3.21071 1.96086 3.58579 1.58579C3.96086 1.21071 4.46957 1 5 1H14.982C15.5124 1.00011 16.021 1.2109 16.396 1.586L20.414 5.604C20.7891 5.97899 20.9999 6.48761 21 7.018V21C21 21.5304 20.7893 22.0391 20.4142 22.4142C20.0391 22.7893 19.5304 23 19 23H5C4.46957 23 3.96086 22.7893 3.58579 22.4142C3.21071 22.0391 3 21.5304 3 21V3ZM5 2.5C4.86739 2.5 4.74021 2.55268 4.64645 2.64645C4.55268 2.74021 4.5 2.86739 4.5 3V21C4.5 21.1326 4.55268 21.2598 4.64645 21.3536C4.74021 21.4473 4.86739 21.5 5 21.5H19C19.1326 21.5 19.2598 21.4473 19.3536 21.3536C19.4473 21.2598 19.5 21.1326 19.5 21V8.5H15.5C14.9696 8.5 14.4609 8.28929 14.0858 7.91421C13.7107 7.53914 13.5 7.03043 13.5 6.5V2.5H5ZM15 2.5V6.5C15 6.63261 15.0527 6.75979 15.1464 6.85355C15.2402 6.94732 15.3674 7 15.5 7H19.5C19.4956 6.87356 19.4434 6.7535 19.354 6.664L15.336 2.646C15.2465 2.55658 15.1264 2.50441 15 2.5Z" />
    </svg>

    <svg viewBox="0 0 24 24" id="report">
        <path
            d="M7.09094 14.3572C7.09094 13.9232 7.44272 13.5714 7.87666 13.5714H12.8507C13.2846 13.5714 13.6364 13.9232 13.6364 14.3572V14.3572C13.6364 14.7911 13.2846 15.1429 12.8507 15.1429H7.87666C7.44272 15.1429 7.09094 14.7911 7.09094 14.3572V14.3572ZM7.09094 10.4286C7.09094 9.99464 7.44272 9.64287 7.87666 9.64287H16.1234C16.5574 9.64287 16.9091 9.99464 16.9091 10.4286V10.4286C16.9091 10.8625 16.5574 11.2143 16.1234 11.2143H7.87666C7.44272 11.2143 7.09094 10.8625 7.09094 10.4286V10.4286ZM7.09094 18.2857C7.09094 17.8518 7.44272 17.5 7.87666 17.5H10.3961C10.8301 17.5 11.1819 17.8518 11.1819 18.2857V18.2857C11.1819 18.7197 10.8301 19.0714 10.3961 19.0714H7.87666C7.44272 19.0714 7.09094 18.7197 7.09094 18.2857V18.2857Z" />
        <path
            d="M19.3637 3.35714H16.9091V2.57143C16.9091 2.15466 16.7367 1.75496 16.4298 1.46026C16.123 1.16556 15.7067 1 15.2728 1H8.72728C8.29329 1 7.87708 1.16556 7.5702 1.46026C7.26332 1.75496 7.09092 2.15466 7.09092 2.57143V3.35714H4.63637C4.20238 3.35714 3.78616 3.5227 3.47928 3.8174C3.1724 4.1121 3 4.5118 3 4.92857V21.4286C3 21.8453 3.1724 22.245 3.47928 22.5397C3.78616 22.8344 4.20238 23 4.63637 23H19.3637C19.7977 23 20.2139 22.8344 20.5208 22.5397C20.8276 22.245 21 21.8453 21 21.4286V4.92857C21 4.5118 20.8276 4.1121 20.5208 3.8174C20.2139 3.5227 19.7977 3.35714 19.3637 3.35714ZM8.72728 2.57143H15.2728V5.71429H8.72728V2.57143ZM19.3637 21.4286H4.63637V4.92857H7.09092V6.28571C7.09092 6.838 7.53863 7.28571 8.09092 7.28571H15.9091C16.4614 7.28571 16.9091 6.838 16.9091 6.28571V4.92857H19.3637V21.4286Z" />
    </svg>

    <svg viewBox="0 0 24 24" id="search">
        <path fill-rule="evenodd" clip-rule="evenodd"
            d="M10.2343 3.17647C6.33579 3.17647 3.17545 6.33682 3.17545 10.2353C3.17545 14.1338 6.33579 17.2941 10.2343 17.2941C14.1328 17.2941 17.2931 14.1338 17.2931 10.2353C17.2931 6.33682 14.1328 3.17647 10.2343 3.17647ZM0.82251 10.2353C0.82251 5.03732 5.0363 0.823532 10.2343 0.823532C15.4323 0.823532 19.646 5.03732 19.646 10.2353C19.646 12.4749 18.8638 14.5318 17.5576 16.1476C17.7656 16.1954 17.963 16.3003 18.125 16.4622L22.8309 21.1681C23.2903 21.6276 23.2903 22.3725 22.8309 22.8319C22.3714 23.2913 21.6265 23.2913 21.1671 22.8319L16.4612 18.126C16.2992 17.964 16.1944 17.7666 16.1466 17.5587C14.5307 18.8648 12.4739 19.6471 10.2343 19.6471C5.0363 19.6471 0.82251 15.4333 0.82251 10.2353Z" />
    </svg>

</svg>